<?xml version="1.0" encoding="UTF-8" standalone="no"?>
<svg
   xmlns:dc="http://purl.org/dc/elements/1.1/"
   xmlns:cc="http://creativecommons.org/ns#"
   xmlns:rdf="http://www.w3.org/1999/02/22-rdf-syntax-ns#"
   xmlns:svg="http://www.w3.org/2000/svg"
   xmlns="http://www.w3.org/2000/svg"
   xmlns:sodipodi="http://sodipodi.sourceforge.net/DTD/sodipodi-0.dtd"
   xmlns:inkscape="http://www.inkscape.org/namespaces/inkscape"
   width="642.51971"
   height="642.51971"
   viewBox="0 0 169.99997 169.99997"
   version="1.1"
   id="svg8"
   inkscape:version="1.0rc1 (09960d6, 2020-04-09)"
   sodipodi:docname="drawing.svg">
  <defs
     id="defs2" />
  <sodipodi:namedview
     fit-margin-bottom="0"
     fit-margin-right="0"
     fit-margin-left="0"
     fit-margin-top="0"
     id="base"
     pagecolor="#ffffff"
     bordercolor="#666666"
     borderopacity="1.0"
     inkscape:pageopacity="0.0"
     inkscape:pageshadow="2"
     inkscape:zoom="0.52262915"
     inkscape:cx="709.48255"
     inkscape:cy="801.81901"
     inkscape:document-units="mm"
     inkscape:current-layer="svg8"
     inkscape:document-rotation="0"
     showgrid="false"
     units="px"
     inkscape:pagecheckerboard="true"
     inkscape:snap-to-guides="true"
     inkscape:window-width="2560"
     inkscape:window-height="1035"
     inkscape:window-x="0"
     inkscape:window-y="23"
     inkscape:window-maximized="0" />
  <metadata
     id="metadata5">
    <rdf:RDF>
      <cc:Work
         rdf:about="">
        <dc:format>image/svg+xml</dc:format>
        <dc:type
           rdf:resource="http://purl.org/dc/dcmitype/StillImage" />
        <dc:title></dc:title>
      </cc:Work>
    </rdf:RDF>
  </metadata>
  <circle
     r="85"
     cy="85"
     cx="85"
     id="path858"
     style="fill:#2c2e3a;fill-opacity:1;stroke-width:15" />
  <g
     inkscape:label="Layer 1"
     inkscape:groupmode="layer"
     id="layer1" />
  <path
     inkscape:connector-curvature="0"
     style="fill:#cff7ff;fill-opacity:1"
     d="m 92.592162,27.560001 c -4.098076,6.295394 0.971227,13.402755 11.098768,15.560763 3.37833,0.719857 5.74637,0.788754 9.63628,-0.377997 2.36199,-0.698217 4.72986,-2.802035 4.72986,-2.802035 4.67295,17.439661 13.46523,50.516135 17.83179,66.812318 0.96463,-0.26468 1.58579,-0.4187 2.93887,-0.78125 -0.2569,-0.95871 -0.45454,-1.64459 -0.68225,-2.49442 -0.22189,-0.82817 -0.30774,-1.38149 -0.36714,-1.92339 -0.69467,-6.33527 0.026,-9.095525 4.81401,-18.437884 6.05549,-11.815361 7.01957,-18.213235 4.93011,-25.806753 -1.95969,-7.123538 -12.33264,-20.726623 -13.58998,-19.710019 3.41746,4.815573 7.63949,9.867366 9.64476,14.503819 2.45057,5.666107 2.28488,14.633856 -0.3949,20.059856 -2.20376,4.462196 -8.64328,9.650506 -10.63601,10.184453 0,0 -9.49845,-35.110042 -13.06757,-48.430117 -0.61464,-2.293785 -3.73456,-5.625687 -5.27974,-6.710201 -7.04648,-4.945869 -18.065906,-5.08739 -21.607048,0.352457 z"
     id="path840" />
  <path
     id="path842"
     d="m 31.815687,108.7976 c 7.501008,0.40134 11.121487,-7.54255 7.926625,-17.392259 -1.065714,-3.285632 -2.190105,-5.37081 -5.14545,-8.156205 -1.785651,-1.696421 -4.791543,-2.695175 -4.791543,-2.695175 12.766698,-12.766698 37.01568,-36.91922 48.945274,-48.848801 -0.711527,-0.703047 -1.155484,-1.163974 -2.145998,-2.154488 -0.701867,0.701814 -1.197004,1.215951 -1.819121,1.838078 -0.606227,0.606237 -1.042514,0.957234 -1.482091,1.279614 -5.13918,3.769269 -7.889965,4.525223 -18.374665,5.04988 -13.260145,0.663547 -19.282882,3.027542 -24.814339,8.633792 -5.189363,5.25894 -11.783525,21.04363 -10.274403,21.624237 2.461635,-5.36734 4.725633,-11.549644 7.738265,-15.60444 3.681739,-4.955263 11.530867,-9.295729 17.569801,-9.687946 4.966273,-0.32262 12.679238,2.660005 14.137959,4.118756 0,0 -25.657003,25.780873 -35.407949,35.531829 -1.679168,1.679171 -3.004752,6.047044 -3.171362,7.927455 -0.760024,8.575332 4.627106,18.189213 11.108697,18.535983 z"
     style="fill:#cff7ff;fill-opacity:1"
     inkscape:connector-curvature="0" />
  <path
     inkscape:connector-curvature="0"
     style="fill:#cff7ff;fill-opacity:1"
     d="m 132.81819,119.96268 c -3.40294,-6.69677 -12.09277,-5.86028 -19.02548,1.83142 -2.3126,2.56581 -3.55627,4.58218 -4.49081,8.5343 -0.57632,2.39466 0.0617,5.49719 0.0617,5.49719 -17.439672,-4.67297 -50.480886,-13.59698 -66.777033,-17.96354 -0.25309,0.96774 -0.430287,1.5827 -0.792847,2.93576 0.958707,0.25689 1.651521,0.42865 2.501358,0.65637 0.828154,0.22195 1.350251,0.42423 1.849248,0.64377 5.833817,2.56603 7.863945,4.5703 13.560655,13.38804 7.204698,11.15191 12.263358,15.18581 19.884236,17.17305 7.149051,1.86465 24.116093,-0.31701 23.864403,-1.91423 -5.879125,0.55182 -12.365139,1.68232 -17.383049,1.10065 -6.132287,-0.7108 -13.815742,-5.33818 -17.174934,-10.37194 -2.762492,-4.13965 -4.035926,-12.3106 -3.501989,-14.30332 0,0 35.155392,9.32922 48.475542,12.89835 2.2938,0.61462 6.73927,-0.42138 8.45111,-1.21725 7.80652,-3.62952 13.43879,-13.10187 10.49831,-18.88852 z"
     id="path844" />
  <ellipse
     transform="rotate(90)"
     ry="15"
     rx="10"
     cy="-85"
     cx="85"
     id="path848"
     style="fill:#cff7ff;fill-opacity:1;stroke-width:14.2813" />
  <ellipse
     transform="rotate(-45)"
     ry="9"
     rx="6"
     cy="120.20815"
     cx="7.1054274e-15"
     id="path850"
     style="fill:#2c2e3a;fill-opacity:1;stroke-width:16.7612" />
</svg>
