<?xml version="1.0" encoding="iso-8859-1"?>
<svg version="1.1" id="NowPlaying" xmlns="http://www.w3.org/2000/svg" xmlns:xlink="http://www.w3.org/1999/xlink" x="0px" y="0px"
	viewBox="0 0 490 490" style="enable-background:new 0 0 490 490;" xml:space="preserve">
<path d="M271.99,490H43.09c-22.9,0-42.7-18.7-42.7-42.7V42.7C0.49,19.8,19.19,0,43.09,0h228.9c22.9,0,42.7,18.7,42.7,42.7v404.7
	C313.59,471.3,294.89,490,271.99,490z M42.09,41.6v406.8h231V41.6H42.09z"/>
<path d="M157.59,206c-32.3,0-58.3-26-58.3-58.3s26-58.3,58.3-58.3s58.3,26,58.3,58.3S189.79,206,157.59,206z M157.59,130
	c-9.4,0-17.7,8.3-17.7,17.7s8.3,17.7,17.7,17.7s17.7-8.3,17.7-17.7S166.89,130,157.59,130z"/>
<path d="M157.59,425.5c-45.8,0-82.2-37.5-82.2-82.2s37.5-82.2,82.2-82.2s82.2,37.5,82.2,82.2S202.29,425.5,157.59,425.5z
		M157.59,301.7c-22.9,0-41.6,18.7-41.6,41.6s18.7,41.6,41.6,41.6s41.6-18.7,41.6-41.6S180.39,301.7,157.59,301.7z"/>
<path d="M444.69,363.1c-10.4-4.2-15.6-15.6-12.5-26c38.5-105.1,1-178.9,1-180c-5.2-10.4-1-21.8,8.3-27c10.4-5.2,21.8-1,27,8.3
	c2.1,4.2,45.8,90.5,1,212.2C468.59,358.9,457.49,367.1,444.69,363.1z"/>
<path d="M367.69,318.3c-10.4-4.2-15.6-15.6-12.5-26c19.8-52,2.1-89.5,1-90.5c-5.2-10.4-1-21.8,9.4-27s21.8-1,27,8.3
	c1,2.1,27,53.1,1,122.8C391.59,314.2,380.79,322.8,367.69,318.3z"/>
</svg>
