<?xml version="1.0" encoding="UTF-8" standalone="no"?>
<svg
   xmlns:dc="http://purl.org/dc/elements/1.1/"
   xmlns:cc="http://creativecommons.org/ns#"
   xmlns:rdf="http://www.w3.org/1999/02/22-rdf-syntax-ns#"
   xmlns:svg="http://www.w3.org/2000/svg"
   xmlns="http://www.w3.org/2000/svg"
   xmlns:sodipodi="http://sodipodi.sourceforge.net/DTD/sodipodi-0.dtd"
   xmlns:inkscape="http://www.inkscape.org/namespaces/inkscape"
   version="1.1"
   id="Layer_1"
   x="0px"
   y="0px"
   width="16.780193"
   height="15.903095"
   viewBox="0 0 132.89913 125.95251"
   enable-background="new 0 0 612 792"
   xml:space="preserve"
   inkscape:version="0.48.3.1 r9886"
   sodipodi:docname="noun_project_1306.svg"><metadata
   id="metadata3071"><rdf:RDF><cc:Work
       rdf:about=""><dc:format>image/svg+xml</dc:format><dc:type
         rdf:resource="http://purl.org/dc/dcmitype/StillImage" /><dc:title></dc:title></cc:Work></rdf:RDF></metadata><defs
   id="defs3069" /><sodipodi:namedview
   pagecolor="#ffffff"
   bordercolor="#666666"
   borderopacity="1"
   objecttolerance="10"
   gridtolerance="10"
   guidetolerance="10"
   inkscape:pageopacity="0"
   inkscape:pageshadow="2"
   inkscape:window-width="1366"
   inkscape:window-height="744"
   id="namedview3067"
   showgrid="false"
   fit-margin-top="0"
   fit-margin-left="0"
   fit-margin-right="0"
   fit-margin-bottom="0"
   inkscape:zoom="5.97"
   inkscape:cx="7.9734847"
   inkscape:cy="0.89002508"
   inkscape:window-x="0"
   inkscape:window-y="24"
   inkscape:window-maximized="1"
   inkscape:current-layer="Layer_1" />
<g
   id="g3057"
   transform="translate(-242.85,-277.09648)">
	<path
   d="m 313.699,314.8 14.399,14.8 -64.398,71.199 c -2.8,3 -7.8,3 -10.8,0 l -7.8,-8 c -3,-2.8 -3,-7.8 0,-10.8 L 313.699,314.8 z m 60.4,15.2 -10.8,11 c -2.2,2.2 -5.601,2.2 -8,0 l -2.4,-2.6 c -1.8,-1.6 -2.6,-4.6 -1.6,-6 1.8,-1.2 1.2,-4.8 -2.2,-8 -4.8,-5 -11,-5.2 -13.399,-2.6 -1,0.8 -4.2,4.2 -4.2,4.2 l -14.8,-14.6 2.4,-2.4 c 0,0 0.6,-0.6 1.8,-2 4.6,-4.6 -0.2,-9.8 -0.2,-9.8 -13,-12.8 -31.199,-12.6 -31.199,-12.6 l -0.2,-4.6 c 36.6,-9.4 50.399,6.6 55.399,11.6 4.6,4.6 9.399,9.399 10.6,10.6 2.6,2.6 0,10 3.8,14.2 1.8,1.8 4.2,2.6 6,2.6 2,-1.8 5.2,-1.2 6.8,0.6 l 2.2,2.4 c 2.199,2.2 2.199,5.6 -0.001,8 z"
   id="path3059"
   inkscape:connector-curvature="0"
   style="fill:#000000" />
</g>
<g
   id="g3061"
   transform="translate(-242.85,-277.09648)">
	<rect
   x="-312.66699"
   y="275"
   width="275"
   height="305"
   id="rect3063"
   style="fill:none" />
	<path
   d="m -131.368,391.6 c 5,5 4.8,13 -0.2,18.199 -5.2,5 -13.199,5 -18.199,-0.199 l -32.2,-34 -29.999,36.199 c -2.8,3 -7.8,3 -10.8,0 l -7.8,-8 c -3,-2.799 -3,-7.799 0,-10.799 l 34.399,-32 -16.6,-16 c -5.4,-5.2 -8.601,-6.8 -13,-5.4 -4.4,1.6 -10.6,1.6 -16.399,-2.2 -12.4,-8 -11.601,-23 -11.601,-23 l 1,-1.6 c 0,0 11.2,7.2 12.6,8 1.801,1.4 8,4.2 13.601,-4.4 5.8,-8.6 1,-14 -0.601,-15 -1.399,-0.8 -12.6,-8.2 -12.6,-8.2 l 1,-1.6 c 0,0 13,-6.6 25.199,0.6 0,0.4 3,2.2 4.2,3.2 7.8,7 7.8,14.8 6.4,21.2 -1.2,5.8 0,7.8 4.6,12.8 l 16.6,16.6 19.8,-20.2 14.399,14.8 -18.999,19.4 35.2,31.6 z m 29.8,-50.6 -10.8,11 c -2.2,2.2 -5.601,2.2 -8,0 l -2.4,-2.6 c -1.8,-1.6 -2.6,-4.6 -1.6,-6 1.8,-1.2 1.2,-4.8 -2.2,-8 -4.8,-5 -11,-5.2 -13.399,-2.6 -1,0.8 -4.2,4.2 -4.2,4.2 l -14.8,-14.6 2.4,-2.4 c 0,0 0.6,-0.6 1.8,-2 4.6,-4.6 -0.2,-9.8 -0.2,-9.8 -13,-12.8 -31.199,-12.6 -31.199,-12.6 l -0.2,-4.6 c 36.6,-9.4 50.399,6.6 55.399,11.6 4.6,4.6 9.399,9.399 10.6,10.6 2.6,2.6 0,10 3.8,14.2 1.8,1.8 4.2,2.6 6,2.6 2,-1.8 5.2,-1.2 6.8,0.6 l 2.2,2.4 c 2.199,2.2 2.199,5.6 -0.001,8 z m -34.399,54.799 c -2.601,-2.6 -6.8,-2.6 -9.601,0 -2.399,2.6 -2.399,7 0,9.4 2.801,2.6 7,3 9.601,0.2 2.599,-2.399 2.599,-7 0,-9.6 z"
   id="path3065"
   inkscape:connector-curvature="0"
   style="fill:#000000" />
</g>
</svg>