<?xml version="1.0" encoding="iso-8859-1"?>
<!-- Generator: Adobe Illustrator 19.0.0, SVG Export Plug-In . SVG Version: 6.00 Build 0)  -->
<svg version="1.1" id="Layer_1" xmlns="http://www.w3.org/2000/svg" xmlns:xlink="http://www.w3.org/1999/xlink" x="0px" y="0px"
	 viewBox="0 0 512.002 512.002" style="enable-background:new 0 0 512.002 512.002;" xml:space="preserve">
<g>
	<g>
		<path d="M221.119,9.05L109.593,120.576H0v270.849h109.593l111.526,111.526h49.729V9.05H221.119z M223.052,437.29l-93.661-93.661
			H47.797V168.373h81.594l93.661-93.66V437.29z"/>
	</g>
</g>
<g>
	<g>
		<path d="M343.511,137.71l-33.797,33.797c46.589,46.591,46.589,122.398,0,168.987l33.797,33.797
			C408.736,309.067,408.736,202.935,343.511,137.71z"/>
	</g>
</g>
<g>
	<g>
		<path d="M428.005,53.216l-33.797,33.797c45.138,45.138,69.997,105.152,69.997,168.987s-24.859,123.85-69.997,168.987
			l33.797,33.797c54.167-54.165,83.997-126.182,83.997-202.785S482.172,107.381,428.005,53.216z"/>
	</g>
</g>
<g>
</g>
<g>
</g>
<g>
</g>
<g>
</g>
<g>
</g>
<g>
</g>
<g>
</g>
<g>
</g>
<g>
</g>
<g>
</g>
<g>
</g>
<g>
</g>
<g>
</g>
<g>
</g>
<g>
</g>
</svg>
