<?xml version="1.0" encoding="iso-8859-1"?>
<!-- Generator: Adobe Illustrator 16.0.0, SVG Export Plug-In . SVG Version: 6.00 Build 0)  -->
<!DOCTYPE svg PUBLIC "-//W3C//DTD SVG 1.1//EN" "http://www.w3.org/Graphics/SVG/1.1/DTD/svg11.dtd">
<svg version="1.1" id="Capa_1" xmlns="http://www.w3.org/2000/svg" xmlns:xlink="http://www.w3.org/1999/xlink" x="0px" y="0px"
	 width="39.499px" height="39.499px" viewBox="0 0 39.499 39.499" style="enable-background:new 0 0 39.499 39.499;"
	 xml:space="preserve">
<g>
	<path d="M38.765,26.274c0.469,0.469,0.732,1.104,0.732,1.77s-0.266,1.299-0.732,1.771l-4.344,4.338
		c-0.488,0.486-1.127,0.729-1.77,0.729c-0.641,0-1.277-0.243-1.769-0.731c-0.977-0.978-0.975-2.562,0.003-3.535l0.086-0.086
		c-1.162,0.131-2.509,0.24-3.81,0.24c-1.576,0-3.07-0.158-4.047-0.629c-2.313-1.109-4.198-3.5-6.021-6.314
		c-1.728,2.701-3.488,5.031-5.604,6.234c-0.998,0.567-2.553,0.76-4.188,0.76c-1.855,0-3.816-0.244-5.191-0.461
		c-1.364-0.217-2.295-1.496-2.08-2.859c0.216-1.362,1.49-2.291,2.859-2.08c2.532,0.4,5.493,0.521,6.215,0.254
		c1.494-0.854,3.354-3.807,5.056-6.601c-1.548-2.506-3.188-4.955-4.595-5.755c-0.698-0.268-3.912-0.141-6.676,0.297
		c-1.361,0.211-2.644-0.716-2.859-2.08c-0.215-1.363,0.716-2.645,2.08-2.859c2.748-0.434,7.695-0.974,9.929,0.297
		c1.895,1.078,3.504,3.068,5.061,5.411c1.656-2.449,3.389-4.49,5.471-5.491c1.812-0.869,5.449-0.694,7.976-0.435
		c-0.614-0.967-0.506-2.263,0.338-3.107c0.976-0.978,2.558-0.978,3.535-0.002l4.347,4.342c0.469,0.469,0.731,1.104,0.731,1.769
		s-0.265,1.3-0.731,1.769l-4.345,4.34c-0.487,0.486-1.127,0.73-1.769,0.73c-0.641,0-1.278-0.244-1.768-0.732
		c-0.977-0.978-0.975-2.561,0.002-3.535l0.443-0.444c-2.822-0.371-5.871-0.452-6.627-0.171c-1.426,0.687-3.098,3.106-4.686,5.661
		c1.746,2.86,3.646,5.784,5.266,6.562c0.619,0.221,3.197,0.153,5.629-0.136l-0.027-0.026c-0.977-0.976-0.979-2.56-0.002-3.533
		c0.975-0.98,2.557-0.979,3.535-0.002L38.765,26.274z"/>
</g>
<g>
</g>
<g>
</g>
<g>
</g>
<g>
</g>
<g>
</g>
<g>
</g>
<g>
</g>
<g>
</g>
<g>
</g>
<g>
</g>
<g>
</g>
<g>
</g>
<g>
</g>
<g>
</g>
<g>
</g>
</svg>
