<?xml version="1.0" encoding="UTF-8" standalone="no"?>
<svg
   xmlns:dc="http://purl.org/dc/elements/1.1/"
   xmlns:cc="http://creativecommons.org/ns#"
   xmlns:rdf="http://www.w3.org/1999/02/22-rdf-syntax-ns#"
   xmlns:svg="http://www.w3.org/2000/svg"
   xmlns="http://www.w3.org/2000/svg"
   xmlns:xlink="http://www.w3.org/1999/xlink"
   xmlns:sodipodi="http://sodipodi.sourceforge.net/DTD/sodipodi-0.dtd"
   xmlns:inkscape="http://www.inkscape.org/namespaces/inkscape"
   width="1024px"
   height="1024px"
   viewBox="0 0 1024 1024"
   version="1.1"
   id="svg478"
   sodipodi:docname="logo.svg"
   inkscape:version="1.0.2 (e86c8708, 2021-01-15)"
   inkscape:export-filename="/Users/freik/bitmap.png"
   inkscape:export-xdpi="96"
   inkscape:export-ydpi="96">
  <metadata
     id="metadata482">
    <rdf:RDF>
      <cc:Work
         rdf:about="">
        <dc:format>image/svg+xml</dc:format>
        <dc:type
           rdf:resource="http://purl.org/dc/dcmitype/StillImage" />
      </cc:Work>
    </rdf:RDF>
  </metadata>
  <sodipodi:namedview
     pagecolor="#ffffff"
     bordercolor="#666666"
     borderopacity="1"
     objecttolerance="10"
     gridtolerance="10"
     guidetolerance="10"
     inkscape:pageopacity="0"
     inkscape:pageshadow="2"
     inkscape:window-width="2304"
     inkscape:window-height="1243"
     id="namedview480"
     showgrid="false"
     inkscape:zoom="0.12153398"
     inkscape:cx="485.81818"
     inkscape:cy="657.45454"
     inkscape:window-x="1280"
     inkscape:window-y="25"
     inkscape:window-maximized="0"
     inkscape:current-layer="svg478"
     inkscape:document-rotation="0" />
  <title
     id="title452">Icon-App-Name.iconset/icon_512x512@2x</title>
  <defs
     id="defs462">
    <path
       d="M824,256.627066 C824,246.845101 824,237.062137 823.943901,227.279173 C823.894902,219.038203 823.799902,210.799233 823.575904,202.562263 C823.091908,184.609328 822.032915,166.502394 818.839939,148.749458 C815.601963,130.740524 810.314002,113.979585 801.981064,97.6166446 C793.789124,81.5337032 783.088204,66.8167567 770.320298,54.0578032 C757.555393,41.2988496 742.834502,30.6048886 726.745621,22.4179184 C710.365742,14.0829487 693.586866,8.79696797 675.558,5.55997976 C657.803131,2.37199136 639.691265,1.31499521 621.738398,0.829996978 C613.495459,0.60699779 605.25252,0.512998132 597.007581,0.461998318 C587.219653,0.401998536 577.431726,0.406998518 567.643798,0.406998518 L453.99664,0 L368.997269,0 L257.361095,0.406998518 C247.554168,0.406998518 237.74724,0.401998536 227.940313,0.461998318 C219.678374,0.512998132 211.420435,0.60699779 203.161496,0.829996978 C185.166629,1.31499521 167.013764,2.37299136 149.216896,5.56497974 C131.164029,8.80096796 114.360154,14.0849487 97.9582749,22.4139184 C81.8353943,30.6018886 67.0825035,41.2968496 54.2905981,54.0578032 C41.5006928,66.8157567 30.7797722,81.5297032 22.5728329,97.6096446 C14.2168948,113.980585 8.91893398,130.751524 5.67295801,148.770458 C2.47698167,166.516394 1.4179895,184.617328 0.930993109,202.562263 C0.708994752,210.800233 0.612995463,219.039203 0.562995833,227.279173 C0.502996277,237.063137 0,249.216093 0,258.999057 L0,369.088656 L0,454.998343 L0.50799624,567.426934 C0.50799624,577.222898 0.503996269,587.018863 0.562995833,596.814827 C0.612995463,605.066797 0.708994752,613.316767 0.931993101,621.565737 C1.4179895,639.541672 2.47898165,657.674606 5.67795797,675.451541 C8.92293395,693.484475 14.2198947,710.269414 22.5688329,726.653354 C30.7767722,742.759296 41.4996928,757.495242 54.2905981,770.272196 C67.0815035,783.049149 81.8303943,793.75711 97.950275,801.95608 C114.362153,810.30205 131.174029,815.595031 149.237895,818.836019 C167.026764,822.029007 185.173629,823.088003 203.161496,823.573002 C211.420435,823.796001 219.679374,823.891 227.941313,823.941 C237.74824,824 247.554168,824 257.361095,824 L370.006261,824 L455.216631,824 L567.643798,824 C577.431726,824 587.219653,824 597.007581,823.941 C605.25252,823.891 613.495459,823.796001 621.738398,823.573002 C639.698265,823.087003 657.816131,822.027007 675.578999,818.832019 C693.596866,815.591031 710.367742,810.30005 726.738621,801.95908 C742.830502,793.76111 757.554393,783.051149 770.320298,770.272196 C783.086204,757.497242 793.786124,742.763296 801.978064,726.660354 C810.316002,710.268414 815.603963,693.475475 818.843939,675.430541 C822.033915,657.660606 823.091908,639.534672 823.576904,621.565737 C823.799902,613.315767 823.894902,605.065797 823.943901,596.814827 C824,587.018863 824,577.222898 824,567.426934 C824,567.426934 824,456.983336 824,454.998343 L824,368.998657 C824,367.532662 824,256.627066 824,256.627066"
       id="path-3" />
    <filter
       x="-2.4%"
       y="-1.2%"
       width="104.9%"
       height="104.9%"
       filterUnits="objectBoundingBox"
       id="filter-5">
      <feOffset
         dx="0"
         dy="10"
         in="SourceAlpha"
         result="shadowOffsetOuter1"
         id="feOffset455" />
      <feGaussianBlur
         stdDeviation="5"
         in="shadowOffsetOuter1"
         result="shadowBlurOuter1"
         id="feGaussianBlur457" />
      <feColorMatrix
         values="0 0 0 0 0   0 0 0 0 0   0 0 0 0 0  0 0 0 0.3 0"
         type="matrix"
         in="shadowBlurOuter1"
         id="feColorMatrix459" />
    </filter>
  </defs>
  <g
     id="Template---Icons---App"
     stroke="none"
     stroke-width="1"
     fill="none"
     fill-rule="evenodd">
    <g
       id="App-Icons---@2x"
       transform="translate(0.000000, -590.000000)">
      <g
         id="512x512@2x"
         transform="translate(0.000000, 590.000000)">
        <g
           id="Artwork"
           transform="translate(100.000000, 100.000000)">
          <mask
             id="mask-4"
             fill="white">
            <use
               xlink:href="#path-3"
               id="use464" />
          </mask>
          <g
             id="Mask">
            <use
               fill="black"
               fill-opacity="1"
               filter="url(#filter-5)"
               xlink:href="#path-3"
               id="use467" />
            <use
               fill="#2b2e3b"
               fill-rule="evenodd"
               xlink:href="#path-3"
               id="use469" />
          </g>
        </g>
      </g>
    </g>
    <!-- This is the grid and other visual indicator things:
      remove it when you're ready -->
    <!-- 
         <a href="https://iconscout.com/icons/electron" target="_blank">Electron Icon</a> by <a href="https://iconscout.com/contributors/icon-mafia">Icon Mafia</a> on <a href="https://iconscout.com">Iconscout</a>
       -->
  </g>
  <path
     style="fill:#9feaf9;fill-opacity:1;stroke:#9feaf9;stroke-width:12.55937008;stroke-linecap:butt;stroke-linejoin:miter;stroke-opacity:1;stroke-miterlimit:4;stroke-dasharray:none"
     d="m 672.5,300 -292.5,143 v -100 l 292.5,-143 z"
     id="path494" />
  <path
     style="fill:none;stroke:#9feaf9;stroke-width:12.55937008;stroke-linecap:butt;stroke-linejoin:miter;stroke-opacity:1;stroke-miterlimit:4;stroke-dasharray:none"
     d="m 380,425 v 300"
     id="path496" />
  <path
     style="fill:none;stroke:#9feaf9;stroke-width:12.55937008;stroke-linecap:butt;stroke-linejoin:miter;stroke-opacity:1;stroke-miterlimit:4;stroke-dasharray:none"
     d="m 672.5,282 v 300"
     id="path498" />
  <path
     style="fill:#9feaf9;fill-opacity:1;stroke:#9feaf9;stroke-width:9.18047244;stroke-linecap:round;stroke-linejoin:round;stroke-opacity:1;stroke-miterlimit:4;stroke-dasharray:none"
     d="m 319.61546,713.37228 c -14.37,-2.62 -25.72,0.12 -30.25,8 -3.38,5.85 -2.41,13.61 2.34,21.9 a 1.4760166,1.4760166 0 0 0 2.56,-1.47 c -4.28,-7.47 -5.12,-14.17 -2.35,-19 3.76,-6.51 13.89,-9 27.17,-6.54 a 1.4740166,1.4740166 0 1 0 0.53,-2.9 z m -20.44,39.95 a 92.2,92.2 0 0 0 22,17.34 c 20.84,12 43,15.25 54,7.79 a 1.4714364,1.4714364 0 0 0 -1.66,-2.43 c -9.86,6.69 -30.97,3.61 -50.9,-7.92 a 89.27,89.27 0 0 1 -21.26,-16.77 1.4792228,1.4792228 0 0 0 -2.18,2 z"
     id="path1661" />
  <path
     style="fill:#9feaf9;fill-opacity:1;stroke:#9feaf9;stroke-width:9.18047244;stroke-linecap:round;stroke-linejoin:round;stroke-opacity:1;stroke-miterlimit:4;stroke-dasharray:none"
     d="m 371.60546,751.52228 c 9.41,-11.11 12.69,-22.29 8.17,-30.11 -3.32,-5.76 -10.35,-8.8 -19.69,-8.92 a 1.475,1.475 0 0 0 0,2.95 c 8.4,0.11 14.45,2.73 17.18,7.45 3.75,6.5 0.82,16.47 -7.87,26.74 a 1.4724554,1.4724554 0 1 0 2.25,1.9 z m -24.17,-37.66 a 92,92 0 0 0 -26.25,10.4 c -21.51,12.45 -35.55,30.74 -33.64,44.02 a 1.51533,1.51533 0 0 0 3,-0.43 c -1.77,-11.79 11.53,-29.14 32.11,-41.03 a 89.07,89.07 0 0 1 25.4,-10.11 1.4729902,1.4729902 0 1 0 -0.62,-2.88 z"
     id="path1663" />
  <path
     style="fill:#9feaf9;fill-opacity:1;stroke:#9feaf9;stroke-width:9.18047244;stroke-linecap:round;stroke-linejoin:round;stroke-opacity:1;stroke-miterlimit:4;stroke-dasharray:none"
     d="m 312.54546,777.49228 c 5,13.73 13,22.22 22.05,22.22 6.6,0 12.7,-4.5 17.46,-12.42 a 1.4829447,1.4829447 0 1 0 -2.51,-1.58 c -4.28,7.12 -9.53,11 -14.94,11 -7.52,0 -14.69,-7.54 -19.24,-20.24 a 1.4724894,1.4724894 0 0 0 -2.77,1 z m 45,-2.69 a 92.5,92.5 0 0 0 3.91,-27.3 c 0,-24.41 -8.54,-45.44 -20.71,-50.85 a 1.4773287,1.4773287 0 0 0 -1.2,2.7 c 10.85,4.82 19,24.78 19,48.15 a 89.57,89.57 0 0 1 -3.78,26.42 1.4722856,1.4722856 0 0 0 2.81,0.88 z m 27.71,-1.44 a 7.05,7.05 0 1 0 -7.05,7.05 7.05,7.05 0 0 0 7.05,-7.05 z m -2.95,0 a 4.1,4.1 0 1 1 -4.1,-4.1 4.1,4.1 0 0 1 4.1,4.1 z m -91.42,7.05 a 7.05,7.05 0 1 0 -7.05,-7.05 7.05,7.05 0 0 0 7.05,7.05 z m 0,-2.95 a 4.1,4.1 0 1 1 4.1,-4.1 4.1,4.1 0 0 1 -4.1,4.1 z"
     id="path1665" />
  <path
     style="fill:#9feaf9;fill-opacity:1;stroke:#9feaf9;stroke-width:9.18047244;stroke-linecap:round;stroke-linejoin:round;stroke-opacity:1;stroke-miterlimit:4;stroke-dasharray:none"
     d="m 334.59546,703.84228 a 7.05,7.05 0 1 0 -7.05,-7.05 7.05,7.05 0 0 0 7.05,7.05 z m 0,-2.95 a 4.1,4.1 0 1 1 4.1,-4.1 4.1,4.1 0 0 1 -4.1,4.1 z m 1.08,51.59 a 5.1,5.1 0 1 1 3.87,-6.06 5.1,5.1 0 0 1 -3.87,6.06 z"
     id="path1667" />
  <path
     style="fill:#9feaf9;fill-opacity:1;stroke:#9feaf9;stroke-width:9.18047244;stroke-linecap:round;stroke-linejoin:round;stroke-opacity:1;stroke-miterlimit:4;stroke-dasharray:none"
     d="m 611.97909,566.46319 c -14.37,-2.62 -25.72,0.12 -30.25,8 -3.38,5.85 -2.41,13.61 2.34,21.9 a 1.4760166,1.4760166 0 0 0 2.56,-1.47 c -4.28,-7.47 -5.12,-14.17 -2.35,-19 3.76,-6.51 13.89,-9 27.17,-6.54 a 1.4740166,1.4740166 0 1 0 0.53,-2.9 z m -20.44,39.95 a 92.2,92.2 0 0 0 22,17.34 c 20.84,12 43,15.25 54,7.79 a 1.4714364,1.4714364 0 0 0 -1.66,-2.43 c -9.86,6.69 -30.97,3.61 -50.9,-7.92 a 89.27,89.27 0 0 1 -21.26,-16.77 1.4792228,1.4792228 0 0 0 -2.18,2 z"
     id="path1661-0" />
  <path
     style="fill:#9feaf9;fill-opacity:1;stroke:#9feaf9;stroke-width:9.18047244;stroke-linecap:round;stroke-linejoin:round;stroke-opacity:1;stroke-miterlimit:4;stroke-dasharray:none"
     d="m 663.96909,604.61319 c 9.41,-11.11 12.69,-22.29 8.17,-30.11 -3.32,-5.76 -10.35,-8.8 -19.69,-8.92 a 1.475,1.475 0 0 0 0,2.95 c 8.4,0.11 14.45,2.73 17.18,7.45 3.75,6.5 0.82,16.47 -7.87,26.74 a 1.4724554,1.4724554 0 1 0 2.25,1.9 z m -24.17,-37.66 a 92,92 0 0 0 -26.25,10.4 c -21.51,12.45 -35.55,30.74 -33.64,44.02 a 1.51533,1.51533 0 0 0 3,-0.43 c -1.77,-11.79 11.53,-29.14 32.11,-41.03 a 89.07,89.07 0 0 1 25.4,-10.11 1.4729902,1.4729902 0 1 0 -0.62,-2.88 z"
     id="path1663-3" />
  <path
     style="fill:#9feaf9;fill-opacity:1;stroke:#9feaf9;stroke-width:9.18047244;stroke-linecap:round;stroke-linejoin:round;stroke-opacity:1;stroke-miterlimit:4;stroke-dasharray:none"
     d="m 604.90909,630.58319 c 5,13.73 13,22.22 22.05,22.22 6.6,0 12.7,-4.5 17.46,-12.42 a 1.4829447,1.4829447 0 1 0 -2.51,-1.58 c -4.28,7.12 -9.53,11 -14.94,11 -7.52,0 -14.69,-7.54 -19.24,-20.24 a 1.4724894,1.4724894 0 0 0 -2.77,1 z m 45,-2.69 a 92.5,92.5 0 0 0 3.91,-27.3 c 0,-24.41 -8.54,-45.44 -20.71,-50.85 a 1.4773287,1.4773287 0 0 0 -1.2,2.7 c 10.85,4.82 19,24.78 19,48.15 a 89.57,89.57 0 0 1 -3.78,26.42 1.4722856,1.4722856 0 0 0 2.81,0.88 z m 27.71,-1.44 a 7.05,7.05 0 1 0 -7.05,7.05 7.05,7.05 0 0 0 7.05,-7.05 z m -2.95,0 a 4.1,4.1 0 1 1 -4.1,-4.1 4.1,4.1 0 0 1 4.1,4.1 z m -91.42,7.05 a 7.05,7.05 0 1 0 -7.05,-7.05 7.05,7.05 0 0 0 7.05,7.05 z m 0,-2.95 a 4.1,4.1 0 1 1 4.1,-4.1 4.1,4.1 0 0 1 -4.1,4.1 z"
     id="path1665-9" />
  <path
     style="fill:#9feaf9;fill-opacity:1;stroke:#9feaf9;stroke-width:9.18047244;stroke-linecap:round;stroke-linejoin:round;stroke-opacity:1;stroke-miterlimit:4;stroke-dasharray:none"
     d="m 626.95909,556.93319 a 7.05,7.05 0 1 0 -7.05,-7.05 7.05,7.05 0 0 0 7.05,7.05 z m 0,-2.95 a 4.1,4.1 0 1 1 4.1,-4.1 4.1,4.1 0 0 1 -4.1,4.1 z m 1.08,51.59 a 5.1,5.1 0 1 1 3.87,-6.06 5.1,5.1 0 0 1 -3.87,6.06 z"
     id="path1667-9" />
</svg>
