<?xml version="1.0" encoding="iso-8859-1"?>
<!DOCTYPE svg PUBLIC "-//W3C//DTD SVG 1.1//EN" "http://www.w3.org/Graphics/SVG/1.1/DTD/svg11.dtd">
<svg version="1.1" id="Artist" xmlns="http://www.w3.org/2000/svg" xmlns:xlink="http://www.w3.org/1999/xlink" x="0px" y="0px"
	 width="326.692px" height="326.692px" viewBox="0 0 326.692 326.692" style="enable-background:new 0 0 326.692 326.692;"
	 xml:space="preserve">
<path d="M159.597,307.058c18.271-18.273,23.558-45.418,16.821-72.447c1.295-12.66,10.413-17.538,16.73-19.407
	c3.625-0.327,7.312-0.989,10.988-2.145c23.291-7.259,40.042-30.794,33.383-41.331c-4.448-7.042-8.901-11.139-22.115-4.609h-0.006
	l-0.01,0.011c-1.507,0.74-3.128,1.626-4.867,2.656c-4.79,2.118-12.045,3.931-16.783-1.361c-4.805-5.367-2.247-14.17,0.29-19.928
	l65.4-66.427l0.025,0.025c0.114-0.135,0.228-0.261,0.342-0.394l1.725-1.755c6.017-5.409,14.059-6.406,18.403-2.062
	c0.196,0.194,0.315,0.436,0.491,0.647c0.259-0.652,0.539-1.315,0.85-1.988c3.164-6.941,8.767-14.874,16.233-22.346
	c6.814-6.812,14.022-12.093,20.505-15.376c0.627-0.318,1.232-0.583,1.839-0.865l3.318-3.319c-0.269-2.105,0.068-4.72,1.735-7.837
	c0,0-5.438-7.56-5.836-12.471c-0.212-2.592-1.781-3.208-3.226-3.224c-1.29-0.016-2.48,0.44-2.48,0.44s0.455-1.188,0.439-2.48
	c-0.021-1.442-0.637-3.019-3.226-3.226C305.658,5.442,298.099,0,298.099,0c-3.117,1.673-5.732,2.007-7.84,1.734l-3.319,3.319
	c-0.274,0.611-0.543,1.214-0.859,1.841c-3.277,6.48-8.564,13.691-15.379,20.505c-7.467,7.464-15.405,13.075-22.344,16.236
	c-0.673,0.306-1.336,0.588-1.988,0.847c0.212,0.176,0.45,0.298,0.647,0.495c3.93,3.928,3.511,10.89-0.601,16.637l-68.015,69.082
	c-5.805,3.27-16.467,7.858-21.399,0.8c-5.556-7.954-2.004-17.375-0.344-20.855c0.238-0.455,0.477-0.906,0.694-1.341
	c0.005-0.011,0.028-0.047,0.028-0.047l-0.007-0.005c6.597-13.295,2.488-17.753-4.565-22.214
	c-10.54-6.659-34.067,10.097-41.332,33.386c-0.593,1.893-1.023,3.79-1.391,5.683l-0.025-0.01c0,0-0.016,0.165-0.047,0.439
	c-0.155,0.839-0.329,1.676-0.445,2.509c-1.491,6.822-7.25,22.976-28.172,20.78v0.005c-22.711-2.54-44.508,3.622-59.965,19.073
	c-30.737,30.738-24.731,86.589,13.424,124.741C73.014,331.788,128.857,337.795,159.597,307.058z"/>
</svg>