<?xml version="1.0" encoding="iso-8859-1"?>
<!-- Generator: Adobe Illustrator 16.0.0, SVG Export Plug-In . SVG Version: 6.00 Build 0)  -->
<!DOCTYPE svg PUBLIC "-//W3C//DTD SVG 1.1//EN" "http://www.w3.org/Graphics/SVG/1.1/DTD/svg11.dtd">
<svg version="1.1" id="Capa_1" xmlns="http://www.w3.org/2000/svg" xmlns:xlink="http://www.w3.org/1999/xlink" x="0px" y="0px"
	 width="45.016px" height="45.017px" viewBox="0 0 45.016 45.017" style="enable-background:new 0 0 45.016 45.017;"
	 xml:space="preserve">
<g>
	<path d="M39.909,5.107C36.503,1.702,32.041,0,27.579,0c-4.463,0-8.925,1.702-12.33,5.107c-5.737,5.737-6.621,14.469-2.691,21.152
		L1.341,35.682c-1.691,1.42-1.796,3.839-0.234,5.4l2.828,2.828c1.562,1.562,3.98,1.457,5.401-0.234l9.423-11.217
		c2.717,1.598,5.764,2.415,8.82,2.415c4.462,0,8.925-1.702,12.33-5.106C46.719,22.957,46.719,11.916,39.909,5.107z M34.251,24.111
		c-1.782,1.783-4.151,2.764-6.673,2.764c-2.521,0-4.891-0.982-6.673-2.764c-3.68-3.68-3.68-9.667,0-13.347
		C22.688,8.982,25.058,8,27.579,8c2.521,0,4.892,0.982,6.673,2.764C37.932,14.444,37.932,20.431,34.251,24.111z"/>
</g>
<g>
</g>
<g>
</g>
<g>
</g>
<g>
</g>
<g>
</g>
<g>
</g>
<g>
</g>
<g>
</g>
<g>
</g>
<g>
</g>
<g>
</g>
<g>
</g>
<g>
</g>
<g>
</g>
<g>
</g>
</svg>
